{
	"asset":{
		"generator":"Khronos glTF Blender I/O v4.5.48",
		"version":"2.0"
	},
	"scene":0,
	"scenes":[
		{
			"name":"Scene",
			"nodes":[
				0
			]
		}
	],
	"nodes":[
		{
			"mesh":0,
			"name":"Icosphere.011"
		}
	],
	"animations":[
		{
			"channels":[
				{
					"sampler":0,
					"target":{
						"node":0,
						"path":"translation"
					}
				}
			],
			"name":"IcosphereAction.011",
			"samplers":[
				{
					"input":12,
					"interpolation":"STEP",
					"output":13
				}
			]
		}
	],
	"materials":[
		{
			"doubleSided":true,
			"name":"Reddish.001",
			"pbrMetallicRoughness":{
				"baseColorFactor":[
					0.41600728034973145,
					0.1072920709848404,
					0.0750754177570343,
					1
				],
				"metallicFactor":0
			}
		},
		{
			"doubleSided":true,
			"name":"Yellow.001",
			"pbrMetallicRoughness":{
				"baseColorFactor":[
					0.8004242181777954,
					0.5480961203575134,
					0.08044066280126572,
					1
				],
				"metallicFactor":0
			}
		},
		{
			"alphaMode":"BLEND",
			"doubleSided":true,
			"name":"Cloud.012",
			"pbrMetallicRoughness":{
				"baseColorFactor":[
					0.800000011920929,
					0.800000011920929,
					0.800000011920929,
					0.26153844594955444
				],
				"metallicFactor":0
			}
		}
	],
	"meshes":[
		{
			"name":"Icosphere.011",
			"primitives":[
				{
					"attributes":{
						"POSITION":0,
						"NORMAL":1,
						"TEXCOORD_0":2
					},
					"indices":3,
					"material":0
				},
				{
					"attributes":{
						"POSITION":4,
						"NORMAL":5,
						"TEXCOORD_0":6
					},
					"indices":7,
					"material":1
				},
				{
					"attributes":{
						"POSITION":8,
						"NORMAL":9,
						"TEXCOORD_0":10
					},
					"indices":11,
					"material":2
				}
			]
		}
	],
	"accessors":[
		{
			"bufferView":0,
			"componentType":5126,
			"count":2812,
			"max":[
				0.9988905787467957,
				1.000072717666626,
				1.001835584640503
			],
			"min":[
				-0.9998743534088135,
				-0.999785304069519,
				-0.9938191771507263
			],
			"type":"VEC3"
		},
		{
			"bufferView":1,
			"componentType":5126,
			"count":2812,
			"type":"VEC3"
		},
		{
			"bufferView":2,
			"componentType":5126,
			"count":2812,
			"type":"VEC2"
		},
		{
			"bufferView":3,
			"componentType":5123,
			"count":8709,
			"type":"SCALAR"
		},
		{
			"bufferView":4,
			"componentType":5126,
			"count":2783,
			"max":[
				0.9943363070487976,
				1.0002604722976685,
				1.0003355741500854
			],
			"min":[
				-1.0007760524749756,
				-0.9996057152748108,
				-0.9975053668022156
			],
			"type":"VEC3"
		},
		{
			"bufferView":5,
			"componentType":5126,
			"count":2783,
			"type":"VEC3"
		},
		{
			"bufferView":6,
			"componentType":5126,
			"count":2783,
			"type":"VEC2"
		},
		{
			"bufferView":7,
			"componentType":5123,
			"count":8625,
			"type":"SCALAR"
		},
		{
			"bufferView":8,
			"componentType":5126,
			"count":1150,
			"max":[
				1.0553985834121704,
				1.060615062713623,
				1.0491375923156738
			],
			"min":[
				-1.0718135833740234,
				-1.0501301288604736,
				-1.0740610361099243
			],
			"type":"VEC3"
		},
		{
			"bufferView":9,
			"componentType":5126,
			"count":1150,
			"type":"VEC3"
		},
		{
			"bufferView":10,
			"componentType":5126,
			"count":1150,
			"type":"VEC2"
		},
		{
			"bufferView":11,
			"componentType":5123,
			"count":3351,
			"type":"SCALAR"
		},
		{
			"bufferView":12,
			"componentType":5126,
			"count":2,
			"max":[
				10.416666666666666
			],
			"min":[
				0.041666666666666664
			],
			"type":"SCALAR"
		},
		{
			"bufferView":13,
			"componentType":5126,
			"count":2,
			"type":"VEC3"
		}
	],
	"bufferViews":[
		{
			"buffer":0,
			"byteLength":33744,
			"byteOffset":0,
			"target":34962
		},
		{
			"buffer":0,
			"byteLength":33744,
			"byteOffset":33744,
			"target":34962
		},
		{
			"buffer":0,
			"byteLength":22496,
			"byteOffset":67488,
			"target":34962
		},
		{
			"buffer":0,
			"byteLength":17418,
			"byteOffset":89984,
			"target":34963
		},
		{
			"buffer":0,
			"byteLength":33396,
			"byteOffset":107404,
			"target":34962
		},
		{
			"buffer":0,
			"byteLength":33396,
			"byteOffset":140800,
			"target":34962
		},
		{
			"buffer":0,
			"byteLength":22264,
			"byteOffset":174196,
			"target":34962
		},
		{
			"buffer":0,
			"byteLength":17250,
			"byteOffset":196460,
			"target":34963
		},
		{
			"buffer":0,
			"byteLength":13800,
			"byteOffset":213712,
			"target":34962
		},
		{
			"buffer":0,
			"byteLength":13800,
			"byteOffset":227512,
			"target":34962
		},
		{
			"buffer":0,
			"byteLength":9200,
			"byteOffset":241312,
			"target":34962
		},
		{
			"buffer":0,
			"byteLength":6702,
			"byteOffset":250512,
			"target":34963
		},
		{
			"buffer":0,
			"byteLength":8,
			"byteOffset":257216
		},
		{
			"buffer":0,
			"byteLength":24,
			"byteOffset":257224
		}
	],
	"buffers":[
		{
			"byteLength":257248,
			"uri":"Caelum.bin"
		}
	]
}
