{
	"asset":{
		"generator":"Khronos glTF Blender I/O v4.5.48",
		"version":"2.0"
	},
	"extensionsUsed":[
		"KHR_materials_emissive_strength"
	],
	"scene":0,
	"scenes":[
		{
			"name":"Scene",
			"nodes":[
				0
			]
		}
	],
	"nodes":[
		{
			"mesh":0,
			"name":"Icosphere.010"
		}
	],
	"animations":[
		{
			"channels":[
				{
					"sampler":0,
					"target":{
						"node":0,
						"path":"translation"
					}
				}
			],
			"name":"IcosphereAction.010",
			"samplers":[
				{
					"input":8,
					"interpolation":"STEP",
					"output":9
				}
			]
		}
	],
	"materials":[
		{
			"doubleSided":true,
			"name":"DarkRed.001",
			"pbrMetallicRoughness":{
				"baseColorFactor":[
					0.013457298278808594,
					0.0012740222737193108,
					0.0018368011806160212,
					1
				],
				"metallicFactor":0
			}
		},
		{
			"doubleSided":true,
			"emissiveFactor":[
				1,
				0.0432785302400589,
				0
			],
			"extensions":{
				"KHR_materials_emissive_strength":{
					"emissiveStrength":1.5
				}
			},
			"name":"Molten.001",
			"pbrMetallicRoughness":{
				"baseColorFactor":[
					0.8004660606384277,
					0.02022761106491089,
					0,
					1
				],
				"metallicFactor":0
			}
		}
	],
	"meshes":[
		{
			"name":"Icosphere.010",
			"primitives":[
				{
					"attributes":{
						"POSITION":0,
						"NORMAL":1,
						"TEXCOORD_0":2
					},
					"indices":3,
					"material":0
				},
				{
					"attributes":{
						"POSITION":4,
						"NORMAL":5,
						"TEXCOORD_0":6
					},
					"indices":7,
					"material":1
				}
			]
		}
	],
	"accessors":[
		{
			"bufferView":0,
			"componentType":5126,
			"count":2979,
			"max":[
				0.9992754459381104,
				1.000250220298767,
				1.0001890659332275
			],
			"min":[
				-0.9998993873596191,
				-0.9996026158332825,
				-0.999592125415802
			],
			"type":"VEC3"
		},
		{
			"bufferView":1,
			"componentType":5126,
			"count":2979,
			"type":"VEC3"
		},
		{
			"bufferView":2,
			"componentType":5126,
			"count":2979,
			"type":"VEC2"
		},
		{
			"bufferView":3,
			"componentType":5123,
			"count":10224,
			"type":"SCALAR"
		},
		{
			"bufferView":4,
			"componentType":5126,
			"count":2563,
			"max":[
				0.9872206449508667,
				0.9999265670776367,
				0.9991093873977661
			],
			"min":[
				-0.9996494650840759,
				-1.0001356601715088,
				-0.9997689723968506
			],
			"type":"VEC3"
		},
		{
			"bufferView":5,
			"componentType":5126,
			"count":2563,
			"type":"VEC3"
		},
		{
			"bufferView":6,
			"componentType":5126,
			"count":2563,
			"type":"VEC2"
		},
		{
			"bufferView":7,
			"componentType":5123,
			"count":7185,
			"type":"SCALAR"
		},
		{
			"bufferView":8,
			"componentType":5126,
			"count":2,
			"max":[
				10.416666666666666
			],
			"min":[
				0.041666666666666664
			],
			"type":"SCALAR"
		},
		{
			"bufferView":9,
			"componentType":5126,
			"count":2,
			"type":"VEC3"
		}
	],
	"bufferViews":[
		{
			"buffer":0,
			"byteLength":35748,
			"byteOffset":0,
			"target":34962
		},
		{
			"buffer":0,
			"byteLength":35748,
			"byteOffset":35748,
			"target":34962
		},
		{
			"buffer":0,
			"byteLength":23832,
			"byteOffset":71496,
			"target":34962
		},
		{
			"buffer":0,
			"byteLength":20448,
			"byteOffset":95328,
			"target":34963
		},
		{
			"buffer":0,
			"byteLength":30756,
			"byteOffset":115776,
			"target":34962
		},
		{
			"buffer":0,
			"byteLength":30756,
			"byteOffset":146532,
			"target":34962
		},
		{
			"buffer":0,
			"byteLength":20504,
			"byteOffset":177288,
			"target":34962
		},
		{
			"buffer":0,
			"byteLength":14370,
			"byteOffset":197792,
			"target":34963
		},
		{
			"buffer":0,
			"byteLength":8,
			"byteOffset":212164
		},
		{
			"buffer":0,
			"byteLength":24,
			"byteOffset":212172
		}
	],
	"buffers":[
		{
			"byteLength":212196,
			"uri":"Drenovar.bin"
		}
	]
}
