{
	"asset":{
		"generator":"Khronos glTF Blender I/O v4.5.48",
		"version":"2.0"
	},
	"scene":0,
	"scenes":[
		{
			"name":"Scene",
			"nodes":[
				0
			]
		}
	],
	"nodes":[
		{
			"mesh":0,
			"name":"Icosphere.014"
		}
	],
	"animations":[
		{
			"channels":[
				{
					"sampler":0,
					"target":{
						"node":0,
						"path":"translation"
					}
				}
			],
			"name":"IcosphereAction.014",
			"samplers":[
				{
					"input":8,
					"interpolation":"STEP",
					"output":9
				}
			]
		}
	],
	"materials":[
		{
			"doubleSided":true,
			"name":"Rock.001",
			"pbrMetallicRoughness":{
				"baseColorFactor":[
					0.15034900605678558,
					0.09329743683338165,
					0.09931425750255585,
					1
				],
				"metallicFactor":0
			}
		},
		{
			"doubleSided":true,
			"name":"Stone.001",
			"pbrMetallicRoughness":{
				"baseColorFactor":[
					0.026443088427186012,
					0.02284746617078781,
					0.022311579436063766,
					1
				],
				"metallicFactor":0
			}
		}
	],
	"meshes":[
		{
			"name":"Icosphere.014",
			"primitives":[
				{
					"attributes":{
						"POSITION":0,
						"NORMAL":1,
						"TEXCOORD_0":2
					},
					"indices":3,
					"material":0
				},
				{
					"attributes":{
						"POSITION":4,
						"NORMAL":5,
						"TEXCOORD_0":6
					},
					"indices":7,
					"material":1
				}
			]
		}
	],
	"accessors":[
		{
			"bufferView":0,
			"componentType":5126,
			"count":2275,
			"max":[
				0.9983227252960205,
				1.0001622438430786,
				0.9994623064994812
			],
			"min":[
				-0.998668372631073,
				-0.99928879737854,
				-0.9995949268341064
			],
			"type":"VEC3"
		},
		{
			"bufferView":1,
			"componentType":5126,
			"count":2275,
			"type":"VEC3"
		},
		{
			"bufferView":2,
			"componentType":5126,
			"count":2275,
			"type":"VEC2"
		},
		{
			"bufferView":3,
			"componentType":5123,
			"count":7575,
			"type":"SCALAR"
		},
		{
			"bufferView":4,
			"componentType":5126,
			"count":2213,
			"max":[
				0.9983672499656677,
				0.9987086653709412,
				0.9790187478065491
			],
			"min":[
				-0.9987006783485413,
				-0.9992865920066833,
				-0.9965806603431702
			],
			"type":"VEC3"
		},
		{
			"bufferView":5,
			"componentType":5126,
			"count":2213,
			"type":"VEC3"
		},
		{
			"bufferView":6,
			"componentType":5126,
			"count":2213,
			"type":"VEC2"
		},
		{
			"bufferView":7,
			"componentType":5123,
			"count":7284,
			"type":"SCALAR"
		},
		{
			"bufferView":8,
			"componentType":5126,
			"count":2,
			"max":[
				10.416666666666666
			],
			"min":[
				0.041666666666666664
			],
			"type":"SCALAR"
		},
		{
			"bufferView":9,
			"componentType":5126,
			"count":2,
			"type":"VEC3"
		}
	],
	"bufferViews":[
		{
			"buffer":0,
			"byteLength":27300,
			"byteOffset":0,
			"target":34962
		},
		{
			"buffer":0,
			"byteLength":27300,
			"byteOffset":27300,
			"target":34962
		},
		{
			"buffer":0,
			"byteLength":18200,
			"byteOffset":54600,
			"target":34962
		},
		{
			"buffer":0,
			"byteLength":15150,
			"byteOffset":72800,
			"target":34963
		},
		{
			"buffer":0,
			"byteLength":26556,
			"byteOffset":87952,
			"target":34962
		},
		{
			"buffer":0,
			"byteLength":26556,
			"byteOffset":114508,
			"target":34962
		},
		{
			"buffer":0,
			"byteLength":17704,
			"byteOffset":141064,
			"target":34962
		},
		{
			"buffer":0,
			"byteLength":14568,
			"byteOffset":158768,
			"target":34963
		},
		{
			"buffer":0,
			"byteLength":8,
			"byteOffset":173336
		},
		{
			"buffer":0,
			"byteLength":24,
			"byteOffset":173344
		}
	],
	"buffers":[
		{
			"byteLength":173368,
			"uri":"Korund.bin"
		}
	]
}
