{
	"asset":{
		"generator":"Khronos glTF Blender I/O v4.5.48",
		"version":"2.0"
	},
	"scene":0,
	"scenes":[
		{
			"name":"Scene",
			"nodes":[
				0
			]
		}
	],
	"nodes":[
		{
			"mesh":0,
			"name":"Icosphere.012"
		}
	],
	"animations":[
		{
			"channels":[
				{
					"sampler":0,
					"target":{
						"node":0,
						"path":"translation"
					}
				}
			],
			"name":"IcosphereAction.012",
			"samplers":[
				{
					"input":12,
					"interpolation":"STEP",
					"output":13
				}
			]
		}
	],
	"materials":[
		{
			"doubleSided":true,
			"name":"Grey.001",
			"pbrMetallicRoughness":{
				"baseColorFactor":[
					0.3200265169143677,
					0.3200265169143677,
					0.3200265169143677,
					1
				],
				"metallicFactor":0
			}
		},
		{
			"doubleSided":true,
			"name":"DarkerGrey.001",
			"pbrMetallicRoughness":{
				"baseColorFactor":[
					0.06303101032972336,
					0.06303101032972336,
					0.06303101032972336,
					1
				],
				"metallicFactor":0
			}
		},
		{
			"alphaMode":"BLEND",
			"doubleSided":true,
			"name":"Cloud.013",
			"pbrMetallicRoughness":{
				"baseColorFactor":[
					0.800000011920929,
					0.800000011920929,
					0.800000011920929,
					0.26153844594955444
				],
				"metallicFactor":0
			}
		}
	],
	"meshes":[
		{
			"name":"Icosphere.012",
			"primitives":[
				{
					"attributes":{
						"POSITION":0,
						"NORMAL":1,
						"TEXCOORD_0":2
					},
					"indices":3,
					"material":0
				},
				{
					"attributes":{
						"POSITION":4,
						"NORMAL":5,
						"TEXCOORD_0":6
					},
					"indices":7,
					"material":1
				},
				{
					"attributes":{
						"POSITION":8,
						"NORMAL":9,
						"TEXCOORD_0":10
					},
					"indices":11,
					"material":2
				}
			]
		}
	],
	"accessors":[
		{
			"bufferView":0,
			"componentType":5126,
			"count":2525,
			"max":[
				0.9996920824050903,
				0.9999468326568604,
				0.998884916305542
			],
			"min":[
				-0.9976517558097839,
				-0.9987449645996094,
				-0.9887129068374634
			],
			"type":"VEC3"
		},
		{
			"bufferView":1,
			"componentType":5126,
			"count":2525,
			"type":"VEC3"
		},
		{
			"bufferView":2,
			"componentType":5126,
			"count":2525,
			"type":"VEC2"
		},
		{
			"bufferView":3,
			"componentType":5123,
			"count":7209,
			"type":"SCALAR"
		},
		{
			"bufferView":4,
			"componentType":5126,
			"count":2921,
			"max":[
				1.0000402927398682,
				1.0000358819961548,
				0.9988848567008972
			],
			"min":[
				-1.0000451803207397,
				-0.9991835355758667,
				-0.999417245388031
			],
			"type":"VEC3"
		},
		{
			"bufferView":5,
			"componentType":5126,
			"count":2921,
			"type":"VEC3"
		},
		{
			"bufferView":6,
			"componentType":5126,
			"count":2921,
			"type":"VEC2"
		},
		{
			"bufferView":7,
			"componentType":5123,
			"count":10158,
			"type":"SCALAR"
		},
		{
			"bufferView":8,
			"componentType":5126,
			"count":1803,
			"max":[
				1.0664052963256836,
				1.071481466293335,
				1.0649728775024414
			],
			"min":[
				-1.0739492177963257,
				-1.0750830173492432,
				-1.0740621089935303
			],
			"type":"VEC3"
		},
		{
			"bufferView":9,
			"componentType":5126,
			"count":1803,
			"type":"VEC3"
		},
		{
			"bufferView":10,
			"componentType":5126,
			"count":1803,
			"type":"VEC2"
		},
		{
			"bufferView":11,
			"componentType":5123,
			"count":5949,
			"type":"SCALAR"
		},
		{
			"bufferView":12,
			"componentType":5126,
			"count":2,
			"max":[
				10.416666666666666
			],
			"min":[
				0.041666666666666664
			],
			"type":"SCALAR"
		},
		{
			"bufferView":13,
			"componentType":5126,
			"count":2,
			"type":"VEC3"
		}
	],
	"bufferViews":[
		{
			"buffer":0,
			"byteLength":30300,
			"byteOffset":0,
			"target":34962
		},
		{
			"buffer":0,
			"byteLength":30300,
			"byteOffset":30300,
			"target":34962
		},
		{
			"buffer":0,
			"byteLength":20200,
			"byteOffset":60600,
			"target":34962
		},
		{
			"buffer":0,
			"byteLength":14418,
			"byteOffset":80800,
			"target":34963
		},
		{
			"buffer":0,
			"byteLength":35052,
			"byteOffset":95220,
			"target":34962
		},
		{
			"buffer":0,
			"byteLength":35052,
			"byteOffset":130272,
			"target":34962
		},
		{
			"buffer":0,
			"byteLength":23368,
			"byteOffset":165324,
			"target":34962
		},
		{
			"buffer":0,
			"byteLength":20316,
			"byteOffset":188692,
			"target":34963
		},
		{
			"buffer":0,
			"byteLength":21636,
			"byteOffset":209008,
			"target":34962
		},
		{
			"buffer":0,
			"byteLength":21636,
			"byteOffset":230644,
			"target":34962
		},
		{
			"buffer":0,
			"byteLength":14424,
			"byteOffset":252280,
			"target":34962
		},
		{
			"buffer":0,
			"byteLength":11898,
			"byteOffset":266704,
			"target":34963
		},
		{
			"buffer":0,
			"byteLength":8,
			"byteOffset":278604
		},
		{
			"buffer":0,
			"byteLength":24,
			"byteOffset":278612
		}
	],
	"buffers":[
		{
			"byteLength":278636,
			"uri":"Orpheon.bin"
		}
	]
}
