{
	"asset":{
		"generator":"Khronos glTF Blender I/O v4.5.48",
		"version":"2.0"
	},
	"scene":0,
	"scenes":[
		{
			"name":"Scene",
			"nodes":[
				0
			]
		}
	],
	"nodes":[
		{
			"mesh":0,
			"name":"Icosphere.013"
		}
	],
	"animations":[
		{
			"channels":[
				{
					"sampler":0,
					"target":{
						"node":0,
						"path":"translation"
					}
				}
			],
			"name":"IcosphereAction.013",
			"samplers":[
				{
					"input":8,
					"interpolation":"STEP",
					"output":9
				}
			]
		}
	],
	"materials":[
		{
			"doubleSided":true,
			"name":"BlackBlue.001",
			"pbrMetallicRoughness":{
				"baseColorFactor":[
					0.011779369786381721,
					0.03555277734994888,
					0.32002586126327515,
					1
				],
				"metallicFactor":0
			}
		},
		{
			"alphaMode":"BLEND",
			"doubleSided":true,
			"name":"Cloud.014",
			"pbrMetallicRoughness":{
				"baseColorFactor":[
					0.800000011920929,
					0.800000011920929,
					0.800000011920929,
					0.26153844594955444
				],
				"metallicFactor":0
			}
		}
	],
	"meshes":[
		{
			"name":"Icosphere.013",
			"primitives":[
				{
					"attributes":{
						"POSITION":0,
						"NORMAL":1,
						"TEXCOORD_0":2
					},
					"indices":3,
					"material":0
				},
				{
					"attributes":{
						"POSITION":4,
						"NORMAL":5,
						"TEXCOORD_0":6
					},
					"indices":7,
					"material":1
				}
			]
		}
	],
	"accessors":[
		{
			"bufferView":0,
			"componentType":5126,
			"count":1363,
			"max":[
				0.9995214343070984,
				0.9986279606819153,
				0.9987981915473938
			],
			"min":[
				-0.9980068802833557,
				-0.9957277178764343,
				-0.999345064163208
			],
			"type":"VEC3"
		},
		{
			"bufferView":1,
			"componentType":5126,
			"count":1363,
			"type":"VEC3"
		},
		{
			"bufferView":2,
			"componentType":5126,
			"count":1363,
			"type":"VEC2"
		},
		{
			"bufferView":3,
			"componentType":5123,
			"count":7734,
			"type":"SCALAR"
		},
		{
			"bufferView":4,
			"componentType":5126,
			"count":1381,
			"max":[
				1.0545296669006348,
				1.0605887174606323,
				1.0491375923156738
			],
			"min":[
				-1.0718135833740234,
				-1.0501301288604736,
				-1.0739929676055908
			],
			"type":"VEC3"
		},
		{
			"bufferView":5,
			"componentType":5126,
			"count":1381,
			"type":"VEC3"
		},
		{
			"bufferView":6,
			"componentType":5126,
			"count":1381,
			"type":"VEC2"
		},
		{
			"bufferView":7,
			"componentType":5123,
			"count":4137,
			"type":"SCALAR"
		},
		{
			"bufferView":8,
			"componentType":5126,
			"count":2,
			"max":[
				10.416666666666666
			],
			"min":[
				0.041666666666666664
			],
			"type":"SCALAR"
		},
		{
			"bufferView":9,
			"componentType":5126,
			"count":2,
			"type":"VEC3"
		}
	],
	"bufferViews":[
		{
			"buffer":0,
			"byteLength":16356,
			"byteOffset":0,
			"target":34962
		},
		{
			"buffer":0,
			"byteLength":16356,
			"byteOffset":16356,
			"target":34962
		},
		{
			"buffer":0,
			"byteLength":10904,
			"byteOffset":32712,
			"target":34962
		},
		{
			"buffer":0,
			"byteLength":15468,
			"byteOffset":43616,
			"target":34963
		},
		{
			"buffer":0,
			"byteLength":16572,
			"byteOffset":59084,
			"target":34962
		},
		{
			"buffer":0,
			"byteLength":16572,
			"byteOffset":75656,
			"target":34962
		},
		{
			"buffer":0,
			"byteLength":11048,
			"byteOffset":92228,
			"target":34962
		},
		{
			"buffer":0,
			"byteLength":8274,
			"byteOffset":103276,
			"target":34963
		},
		{
			"buffer":0,
			"byteLength":8,
			"byteOffset":111552
		},
		{
			"buffer":0,
			"byteLength":24,
			"byteOffset":111560
		}
	],
	"buffers":[
		{
			"byteLength":111584,
			"uri":"Sablemere.bin"
		}
	]
}
