{
	"asset":{
		"generator":"Khronos glTF Blender I/O v4.5.48",
		"version":"2.0"
	},
	"scene":0,
	"scenes":[
		{
			"name":"Scene",
			"nodes":[
				0
			]
		}
	],
	"nodes":[
		{
			"mesh":0,
			"name":"Icosphere.015"
		}
	],
	"animations":[
		{
			"channels":[
				{
					"sampler":0,
					"target":{
						"node":0,
						"path":"translation"
					}
				}
			],
			"name":"IcosphereAction.015",
			"samplers":[
				{
					"input":12,
					"interpolation":"STEP",
					"output":13
				}
			]
		}
	],
	"materials":[
		{
			"doubleSided":true,
			"name":"Ice1.001",
			"pbrMetallicRoughness":{
				"baseColorFactor":[
					0.43201982975006104,
					0.6729177236557007,
					0.8000473976135254,
					1
				],
				"metallicFactor":0
			}
		},
		{
			"doubleSided":true,
			"name":"Ice2.001",
			"pbrMetallicRoughness":{
				"baseColorFactor":[
					0.24604344367980957,
					0.35032808780670166,
					0.8000473976135254,
					1
				],
				"metallicFactor":0
			}
		},
		{
			"alphaMode":"BLEND",
			"doubleSided":true,
			"name":"Cloud.016",
			"pbrMetallicRoughness":{
				"baseColorFactor":[
					0.800000011920929,
					0.800000011920929,
					0.800000011920929,
					0.26153844594955444
				],
				"metallicFactor":0
			}
		}
	],
	"meshes":[
		{
			"name":"Icosphere.015",
			"primitives":[
				{
					"attributes":{
						"POSITION":0,
						"NORMAL":1,
						"TEXCOORD_0":2
					},
					"indices":3,
					"material":0
				},
				{
					"attributes":{
						"POSITION":4,
						"NORMAL":5,
						"TEXCOORD_0":6
					},
					"indices":7,
					"material":1
				},
				{
					"attributes":{
						"POSITION":8,
						"NORMAL":9,
						"TEXCOORD_0":10
					},
					"indices":11,
					"material":2
				}
			]
		}
	],
	"accessors":[
		{
			"bufferView":0,
			"componentType":5126,
			"count":2882,
			"max":[
				0.9995332956314087,
				0.9995964169502258,
				0.9997984766960144
			],
			"min":[
				-0.9961565732955933,
				-0.9973183870315552,
				-0.9998766183853149
			],
			"type":"VEC3"
		},
		{
			"bufferView":1,
			"componentType":5126,
			"count":2882,
			"type":"VEC3"
		},
		{
			"bufferView":2,
			"componentType":5126,
			"count":2882,
			"type":"VEC2"
		},
		{
			"bufferView":3,
			"componentType":5123,
			"count":8865,
			"type":"SCALAR"
		},
		{
			"bufferView":4,
			"componentType":5126,
			"count":2909,
			"max":[
				0.9999046921730042,
				0.999445915222168,
				0.9998046159744263
			],
			"min":[
				-0.9978054165840149,
				-0.9973351359367371,
				-1.0008413791656494
			],
			"type":"VEC3"
		},
		{
			"bufferView":5,
			"componentType":5126,
			"count":2909,
			"type":"VEC3"
		},
		{
			"bufferView":6,
			"componentType":5126,
			"count":2909,
			"type":"VEC2"
		},
		{
			"bufferView":7,
			"componentType":5123,
			"count":9096,
			"type":"SCALAR"
		},
		{
			"bufferView":8,
			"componentType":5126,
			"count":1785,
			"max":[
				1.0664052963256836,
				1.071481466293335,
				1.0649728775024414
			],
			"min":[
				-1.0739492177963257,
				-1.0750830173492432,
				-1.0740621089935303
			],
			"type":"VEC3"
		},
		{
			"bufferView":9,
			"componentType":5126,
			"count":1785,
			"type":"VEC3"
		},
		{
			"bufferView":10,
			"componentType":5126,
			"count":1785,
			"type":"VEC2"
		},
		{
			"bufferView":11,
			"componentType":5123,
			"count":5871,
			"type":"SCALAR"
		},
		{
			"bufferView":12,
			"componentType":5126,
			"count":2,
			"max":[
				10.416666666666666
			],
			"min":[
				0.041666666666666664
			],
			"type":"SCALAR"
		},
		{
			"bufferView":13,
			"componentType":5126,
			"count":2,
			"type":"VEC3"
		}
	],
	"bufferViews":[
		{
			"buffer":0,
			"byteLength":34584,
			"byteOffset":0,
			"target":34962
		},
		{
			"buffer":0,
			"byteLength":34584,
			"byteOffset":34584,
			"target":34962
		},
		{
			"buffer":0,
			"byteLength":23056,
			"byteOffset":69168,
			"target":34962
		},
		{
			"buffer":0,
			"byteLength":17730,
			"byteOffset":92224,
			"target":34963
		},
		{
			"buffer":0,
			"byteLength":34908,
			"byteOffset":109956,
			"target":34962
		},
		{
			"buffer":0,
			"byteLength":34908,
			"byteOffset":144864,
			"target":34962
		},
		{
			"buffer":0,
			"byteLength":23272,
			"byteOffset":179772,
			"target":34962
		},
		{
			"buffer":0,
			"byteLength":18192,
			"byteOffset":203044,
			"target":34963
		},
		{
			"buffer":0,
			"byteLength":21420,
			"byteOffset":221236,
			"target":34962
		},
		{
			"buffer":0,
			"byteLength":21420,
			"byteOffset":242656,
			"target":34962
		},
		{
			"buffer":0,
			"byteLength":14280,
			"byteOffset":264076,
			"target":34962
		},
		{
			"buffer":0,
			"byteLength":11742,
			"byteOffset":278356,
			"target":34963
		},
		{
			"buffer":0,
			"byteLength":8,
			"byteOffset":290100
		},
		{
			"buffer":0,
			"byteLength":24,
			"byteOffset":290108
		}
	],
	"buffers":[
		{
			"byteLength":290132,
			"uri":"Vaelith.bin"
		}
	]
}
