{
	"asset":{
		"generator":"Khronos glTF Blender I/O v4.5.48",
		"version":"2.0"
	},
	"scene":0,
	"scenes":[
		{
			"name":"Scene",
			"nodes":[
				1
			]
		}
	],
	"nodes":[
		{
			"mesh":0,
			"name":"Text",
			"rotation":[
				0.5,
				0.5,
				-0.5,
				0.4999999701976776
			],
			"scale":[
				0.44425302743911743,
				0.9032776951789856,
				0.44425302743911743
			],
			"translation":[
				-10.603378295898438,
				4.962623596191406,
				7.714607238769531
			]
		},
		{
			"children":[
				0
			],
			"mesh":1,
			"name":"Leaderboard"
		}
	],
	"materials":[
		{
			"doubleSided":true,
			"emissiveFactor":[
				0,
				0.12257240001220104,
				0.800000011920929
			],
			"name":"ScoreboardHighlight",
			"pbrMetallicRoughness":{
				"baseColorFactor":[
					0,
					0.13750511407852173,
					0.8003705143928528,
					1
				],
				"metallicFactor":0
			}
		},
		{
			"doubleSided":true,
			"name":"ScoreboardBackground",
			"pbrMetallicRoughness":{
				"baseColorFactor":[
					0.04861366003751755,
					0.09133172035217285,
					0.17012417316436768,
					1
				],
				"metallicFactor":0,
				"roughnessFactor":0.5
			}
		}
	],
	"meshes":[
		{
			"name":"Text.001",
			"primitives":[
				{
					"attributes":{
						"POSITION":0,
						"NORMAL":1,
						"TEXCOORD_0":2
					},
					"indices":3,
					"material":0
				}
			]
		},
		{
			"name":"Cube.006",
			"primitives":[
				{
					"attributes":{
						"POSITION":4,
						"NORMAL":5,
						"TEXCOORD_0":6
					},
					"indices":7,
					"material":1
				},
				{
					"attributes":{
						"POSITION":8,
						"NORMAL":9,
						"TEXCOORD_0":10
					},
					"indices":11,
					"material":0
				}
			]
		}
	],
	"accessors":[
		{
			"bufferView":0,
			"componentType":5126,
			"count":281,
			"max":[
				8.485000610351562,
				0,
				0.009000000543892384
			],
			"min":[
				0,
				0,
				-0.6910000443458557
			],
			"type":"VEC3"
		},
		{
			"bufferView":1,
			"componentType":5126,
			"count":281,
			"type":"VEC3"
		},
		{
			"bufferView":2,
			"componentType":5126,
			"count":281,
			"type":"VEC2"
		},
		{
			"bufferView":3,
			"componentType":5123,
			"count":789,
			"type":"SCALAR"
		},
		{
			"bufferView":4,
			"componentType":5126,
			"count":8,
			"max":[
				-10.633827209472656,
				5.570071220397949,
				7.894113540649414
			],
			"min":[
				-10.765175819396973,
				-0.7665873169898987,
				3.711763381958008
			],
			"type":"VEC3"
		},
		{
			"bufferView":5,
			"componentType":5126,
			"count":8,
			"type":"VEC3"
		},
		{
			"bufferView":6,
			"componentType":5126,
			"count":8,
			"type":"VEC2"
		},
		{
			"bufferView":7,
			"componentType":5123,
			"count":12,
			"type":"SCALAR"
		},
		{
			"bufferView":8,
			"componentType":5126,
			"count":16,
			"max":[
				-10.633827209472656,
				5.570071220397949,
				7.894113540649414
			],
			"min":[
				-10.765175819396973,
				-0.7665873169898987,
				3.711763381958008
			],
			"type":"VEC3"
		},
		{
			"bufferView":9,
			"componentType":5126,
			"count":16,
			"type":"VEC3"
		},
		{
			"bufferView":10,
			"componentType":5126,
			"count":16,
			"type":"VEC2"
		},
		{
			"bufferView":11,
			"componentType":5123,
			"count":24,
			"type":"SCALAR"
		}
	],
	"bufferViews":[
		{
			"buffer":0,
			"byteLength":3372,
			"byteOffset":0,
			"target":34962
		},
		{
			"buffer":0,
			"byteLength":3372,
			"byteOffset":3372,
			"target":34962
		},
		{
			"buffer":0,
			"byteLength":2248,
			"byteOffset":6744,
			"target":34962
		},
		{
			"buffer":0,
			"byteLength":1578,
			"byteOffset":8992,
			"target":34963
		},
		{
			"buffer":0,
			"byteLength":96,
			"byteOffset":10572,
			"target":34962
		},
		{
			"buffer":0,
			"byteLength":96,
			"byteOffset":10668,
			"target":34962
		},
		{
			"buffer":0,
			"byteLength":64,
			"byteOffset":10764,
			"target":34962
		},
		{
			"buffer":0,
			"byteLength":24,
			"byteOffset":10828,
			"target":34963
		},
		{
			"buffer":0,
			"byteLength":192,
			"byteOffset":10852,
			"target":34962
		},
		{
			"buffer":0,
			"byteLength":192,
			"byteOffset":11044,
			"target":34962
		},
		{
			"buffer":0,
			"byteLength":128,
			"byteOffset":11236,
			"target":34962
		},
		{
			"buffer":0,
			"byteLength":48,
			"byteOffset":11364,
			"target":34963
		}
	],
	"buffers":[
		{
			"byteLength":11412,
			"uri":"Leaderboard.bin"
		}
	]
}
