{
	"asset":{
		"generator":"Khronos glTF Blender I/O v4.5.48",
		"version":"2.0"
	},
	"extensionsUsed":[
		"KHR_materials_emissive_strength"
	],
	"scene":0,
	"scenes":[
		{
			"name":"Scene",
			"nodes":[
				0
			]
		}
	],
	"nodes":[
		{
			"mesh":0,
			"name":"Cube.002",
			"scale":[
				0.08359109610319138,
				0.07339505851268768,
				0.09912185370922089
			]
		}
	],
	"materials":[
		{
			"alphaMode":"BLEND",
			"doubleSided":true,
			"emissiveFactor":[
				0,
				1,
				0.0019691213965415955
			],
			"extensions":{
				"KHR_materials_emissive_strength":{
					"emissiveStrength":1.5
				}
			},
			"name":"Miniship",
			"pbrMetallicRoughness":{
				"baseColorFactor":[
					0.00035462965024635196,
					0.8002511262893677,
					0,
					0.17605635523796082
				],
				"metallicFactor":0
			}
		}
	],
	"meshes":[
		{
			"name":"Cube",
			"primitives":[
				{
					"attributes":{
						"POSITION":0,
						"NORMAL":1,
						"TEXCOORD_0":2
					},
					"indices":3,
					"material":0
				}
			]
		}
	],
	"accessors":[
		{
			"bufferView":0,
			"componentType":5126,
			"count":104,
			"max":[
				2.241832733154297,
				0.8550251126289368,
				1.750061273574829
			],
			"min":[
				-2.241832733154297,
				-0.0016586929559707642,
				-1.9223606586456299
			],
			"type":"VEC3"
		},
		{
			"bufferView":1,
			"componentType":5126,
			"count":104,
			"type":"VEC3"
		},
		{
			"bufferView":2,
			"componentType":5126,
			"count":104,
			"type":"VEC2"
		},
		{
			"bufferView":3,
			"componentType":5123,
			"count":192,
			"type":"SCALAR"
		}
	],
	"bufferViews":[
		{
			"buffer":0,
			"byteLength":1248,
			"byteOffset":0,
			"target":34962
		},
		{
			"buffer":0,
			"byteLength":1248,
			"byteOffset":1248,
			"target":34962
		},
		{
			"buffer":0,
			"byteLength":832,
			"byteOffset":2496,
			"target":34962
		},
		{
			"buffer":0,
			"byteLength":384,
			"byteOffset":3328,
			"target":34963
		}
	],
	"buffers":[
		{
			"byteLength":3712,
			"uri":"Miniship.bin"
		}
	]
}
