{
	"asset":{
		"generator":"Khronos glTF Blender I/O v4.5.48",
		"version":"2.0"
	},
	"extensionsUsed":[
		"KHR_materials_emissive_strength"
	],
	"scene":0,
	"scenes":[
		{
			"name":"Scene",
			"nodes":[
				0,
				1,
				2
			]
		}
	],
	"nodes":[
		{
			"mesh":0,
			"name":"Cylinder.003"
		},
		{
			"name":"B\u00e9zierCircle",
			"scale":[
				0.8085548281669617,
				0.1837930679321289,
				0.8085548281669617
			],
			"translation":[
				0,
				0.6109502911567688,
				0
			]
		},
		{
			"mesh":1,
			"name":"Plane.004"
		}
	],
	"materials":[
		{
			"doubleSided":true,
			"name":"Metal",
			"pbrMetallicRoughness":{
				"baseColorFactor":[
					0.14126233756542206,
					0.1195385530591011,
					0.16513225436210632,
					1
				],
				"metallicFactor":0.7501852512359619,
				"roughnessFactor":0.609154462814331
			}
		},
		{
			"doubleSided":true,
			"emissiveFactor":[
				0,
				0.03005208789991798,
				0
			],
			"name":"ScreenBackground",
			"pbrMetallicRoughness":{
				"baseColorFactor":[
					0,
					0.08848551660776138,
					0,
					1
				],
				"metallicFactor":0
			}
		},
		{
			"doubleSided":true,
			"name":"MetalDarker",
			"pbrMetallicRoughness":{
				"baseColorFactor":[
					0.08224207162857056,
					0.07000201940536499,
					0.09564603865146637,
					1
				],
				"metallicFactor":0.7501852512359619,
				"roughnessFactor":0.609154462814331
			}
		},
		{
			"alphaMode":"BLEND",
			"doubleSided":true,
			"emissiveFactor":[
				1,
				1,
				1
			],
			"emissiveTexture":{
				"index":0
			},
			"extensions":{
				"KHR_materials_emissive_strength":{
					"emissiveStrength":1.5
				}
			},
			"name":"TableMap",
			"pbrMetallicRoughness":{
				"baseColorTexture":{
					"index":1
				},
				"metallicFactor":0,
				"roughnessFactor":0.5
			}
		}
	],
	"meshes":[
		{
			"name":"Cylinder.004",
			"primitives":[
				{
					"attributes":{
						"POSITION":0,
						"NORMAL":1,
						"TEXCOORD_0":2
					},
					"indices":3,
					"material":0
				},
				{
					"attributes":{
						"POSITION":4,
						"NORMAL":5,
						"TEXCOORD_0":6
					},
					"indices":7,
					"material":1
				},
				{
					"attributes":{
						"POSITION":8,
						"NORMAL":9,
						"TEXCOORD_0":10
					},
					"indices":11,
					"material":2
				}
			]
		},
		{
			"name":"Plane.003",
			"primitives":[
				{
					"attributes":{
						"POSITION":12,
						"NORMAL":13,
						"TEXCOORD_0":14
					},
					"indices":15,
					"material":3
				}
			]
		}
	],
	"textures":[
		{
			"sampler":0,
			"source":0
		},
		{
			"sampler":1,
			"source":0
		}
	],
	"images":[
		{
			"mimeType":"image/png",
			"name":"map",
			"uri":"map.png"
		}
	],
	"accessors":[
		{
			"bufferView":0,
			"componentType":5126,
			"count":678,
			"max":[
				1.240804672241211,
				0.6207137107849121,
				1.240804672241211
			],
			"min":[
				-1.240804672241211,
				0.00035369768738746643,
				-1.240804672241211
			],
			"type":"VEC3"
		},
		{
			"bufferView":1,
			"componentType":5126,
			"count":678,
			"type":"VEC3"
		},
		{
			"bufferView":2,
			"componentType":5126,
			"count":678,
			"type":"VEC2"
		},
		{
			"bufferView":3,
			"componentType":5123,
			"count":2154,
			"type":"SCALAR"
		},
		{
			"bufferView":4,
			"componentType":5126,
			"count":48,
			"max":[
				0.864718496799469,
				0.5908493995666504,
				0.864718496799469
			],
			"min":[
				-0.864718496799469,
				0.5908493995666504,
				-0.864718496799469
			],
			"type":"VEC3"
		},
		{
			"bufferView":5,
			"componentType":5126,
			"count":48,
			"type":"VEC3"
		},
		{
			"bufferView":6,
			"componentType":5126,
			"count":48,
			"type":"VEC2"
		},
		{
			"bufferView":7,
			"componentType":5123,
			"count":138,
			"type":"SCALAR"
		},
		{
			"bufferView":8,
			"componentType":5126,
			"count":196,
			"max":[
				1.240804672241211,
				0.0207136869430542,
				1.240804672241211
			],
			"min":[
				-1.240804672241211,
				0.00035369768738746643,
				-1.240804672241211
			],
			"type":"VEC3"
		},
		{
			"bufferView":9,
			"componentType":5126,
			"count":196,
			"type":"VEC3"
		},
		{
			"bufferView":10,
			"componentType":5126,
			"count":196,
			"type":"VEC2"
		},
		{
			"bufferView":11,
			"componentType":5123,
			"count":576,
			"type":"SCALAR"
		},
		{
			"bufferView":12,
			"componentType":5126,
			"count":4,
			"max":[
				0.7118701338768005,
				0.6206321120262146,
				0.7118701338768005
			],
			"min":[
				-0.7118701338768005,
				0.6206321120262146,
				-0.7118701338768005
			],
			"type":"VEC3"
		},
		{
			"bufferView":13,
			"componentType":5126,
			"count":4,
			"type":"VEC3"
		},
		{
			"bufferView":14,
			"componentType":5126,
			"count":4,
			"type":"VEC2"
		},
		{
			"bufferView":15,
			"componentType":5123,
			"count":6,
			"type":"SCALAR"
		}
	],
	"bufferViews":[
		{
			"buffer":0,
			"byteLength":8136,
			"byteOffset":0,
			"target":34962
		},
		{
			"buffer":0,
			"byteLength":8136,
			"byteOffset":8136,
			"target":34962
		},
		{
			"buffer":0,
			"byteLength":5424,
			"byteOffset":16272,
			"target":34962
		},
		{
			"buffer":0,
			"byteLength":4308,
			"byteOffset":21696,
			"target":34963
		},
		{
			"buffer":0,
			"byteLength":576,
			"byteOffset":26004,
			"target":34962
		},
		{
			"buffer":0,
			"byteLength":576,
			"byteOffset":26580,
			"target":34962
		},
		{
			"buffer":0,
			"byteLength":384,
			"byteOffset":27156,
			"target":34962
		},
		{
			"buffer":0,
			"byteLength":276,
			"byteOffset":27540,
			"target":34963
		},
		{
			"buffer":0,
			"byteLength":2352,
			"byteOffset":27816,
			"target":34962
		},
		{
			"buffer":0,
			"byteLength":2352,
			"byteOffset":30168,
			"target":34962
		},
		{
			"buffer":0,
			"byteLength":1568,
			"byteOffset":32520,
			"target":34962
		},
		{
			"buffer":0,
			"byteLength":1152,
			"byteOffset":34088,
			"target":34963
		},
		{
			"buffer":0,
			"byteLength":48,
			"byteOffset":35240,
			"target":34962
		},
		{
			"buffer":0,
			"byteLength":48,
			"byteOffset":35288,
			"target":34962
		},
		{
			"buffer":0,
			"byteLength":32,
			"byteOffset":35336,
			"target":34962
		},
		{
			"buffer":0,
			"byteLength":12,
			"byteOffset":35368,
			"target":34963
		}
	],
	"samplers":[
		{
			"magFilter":9729,
			"minFilter":9987
		},
		{
			"magFilter":9728,
			"minFilter":9984
		}
	],
	"buffers":[
		{
			"byteLength":35380,
			"uri":"MissionTable.bin"
		}
	]
}
