{
	"asset":{
		"generator":"Khronos glTF Blender I/O v4.5.48",
		"version":"2.0"
	},
	"extensionsUsed":[
		"KHR_materials_emissive_strength"
	],
	"scene":0,
	"scenes":[
		{
			"name":"Scene",
			"nodes":[
				0,
				1
			]
		}
	],
	"nodes":[
		{
			"mesh":0,
			"name":"Cube.006",
			"scale":[
				0.682971715927124,
				0.5245141386985779,
				0.1054907962679863
			]
		},
		{
			"mesh":1,
			"name":"SuperchargeWeapons",
			"scale":[
				0.682971715927124,
				0.5245141386985779,
				0.1054907962679863
			],
			"translation":[
				0,
				0,
				-0.019852884113788605
			]
		}
	],
	"materials":[
		{
			"doubleSided":true,
			"emissiveFactor":[
				0,
				0.03005208789991798,
				0
			],
			"name":"ScreenBackground",
			"pbrMetallicRoughness":{
				"baseColorFactor":[
					0,
					0.08848551660776138,
					0,
					1
				],
				"metallicFactor":0
			}
		},
		{
			"doubleSided":true,
			"name":"Metal",
			"pbrMetallicRoughness":{
				"baseColorFactor":[
					0.14126233756542206,
					0.1195385530591011,
					0.16513225436210632,
					1
				],
				"metallicFactor":0.7501852512359619,
				"roughnessFactor":0.609154462814331
			}
		},
		{
			"alphaMode":"BLEND",
			"doubleSided":true,
			"emissiveFactor":[
				1,
				1,
				1
			],
			"emissiveTexture":{
				"index":0
			},
			"extensions":{
				"KHR_materials_emissive_strength":{
					"emissiveStrength":1.5
				}
			},
			"name":"SuperchargeWeapons",
			"pbrMetallicRoughness":{
				"baseColorTexture":{
					"index":1
				},
				"metallicFactor":0,
				"roughnessFactor":0.5
			}
		}
	],
	"meshes":[
		{
			"name":"Cube.010",
			"primitives":[
				{
					"attributes":{
						"POSITION":0,
						"NORMAL":1,
						"TEXCOORD_0":2
					},
					"indices":3,
					"material":0
				},
				{
					"attributes":{
						"POSITION":4,
						"NORMAL":5,
						"TEXCOORD_0":6
					},
					"indices":7,
					"material":1
				}
			]
		},
		{
			"name":"Cube.007",
			"primitives":[
				{
					"attributes":{
						"POSITION":8,
						"NORMAL":9,
						"TEXCOORD_0":10
					},
					"indices":3,
					"material":2
				}
			]
		}
	],
	"textures":[
		{
			"sampler":0,
			"source":0
		},
		{
			"sampler":1,
			"source":0
		}
	],
	"images":[
		{
			"mimeType":"image/png",
			"name":"supercharge_weapons",
			"uri":"supercharge_weapons.png"
		}
	],
	"accessors":[
		{
			"bufferView":0,
			"componentType":5126,
			"count":4,
			"max":[
				0.8985313177108765,
				0.8985313177108765,
				-0.4928409457206726
			],
			"min":[
				-0.8985313177108765,
				-0.8985313177108765,
				-0.4928409457206726
			],
			"type":"VEC3"
		},
		{
			"bufferView":1,
			"componentType":5126,
			"count":4,
			"type":"VEC3"
		},
		{
			"bufferView":2,
			"componentType":5126,
			"count":4,
			"type":"VEC2"
		},
		{
			"bufferView":3,
			"componentType":5123,
			"count":6,
			"type":"SCALAR"
		},
		{
			"bufferView":4,
			"componentType":5126,
			"count":44,
			"max":[
				1,
				1,
				1
			],
			"min":[
				-1,
				-1,
				-1
			],
			"type":"VEC3"
		},
		{
			"bufferView":5,
			"componentType":5126,
			"count":44,
			"type":"VEC3"
		},
		{
			"bufferView":6,
			"componentType":5126,
			"count":44,
			"type":"VEC2"
		},
		{
			"bufferView":7,
			"componentType":5123,
			"count":78,
			"type":"SCALAR"
		},
		{
			"bufferView":8,
			"componentType":5126,
			"count":4,
			"max":[
				0.8985313177108765,
				0.8985313177108765,
				-0.4928409457206726
			],
			"min":[
				-0.8985313177108765,
				-0.8985313177108765,
				-0.4928409457206726
			],
			"type":"VEC3"
		},
		{
			"bufferView":9,
			"componentType":5126,
			"count":4,
			"type":"VEC3"
		},
		{
			"bufferView":10,
			"componentType":5126,
			"count":4,
			"type":"VEC2"
		}
	],
	"bufferViews":[
		{
			"buffer":0,
			"byteLength":48,
			"byteOffset":0,
			"target":34962
		},
		{
			"buffer":0,
			"byteLength":48,
			"byteOffset":48,
			"target":34962
		},
		{
			"buffer":0,
			"byteLength":32,
			"byteOffset":96,
			"target":34962
		},
		{
			"buffer":0,
			"byteLength":12,
			"byteOffset":128,
			"target":34963
		},
		{
			"buffer":0,
			"byteLength":528,
			"byteOffset":140,
			"target":34962
		},
		{
			"buffer":0,
			"byteLength":528,
			"byteOffset":668,
			"target":34962
		},
		{
			"buffer":0,
			"byteLength":352,
			"byteOffset":1196,
			"target":34962
		},
		{
			"buffer":0,
			"byteLength":156,
			"byteOffset":1548,
			"target":34963
		},
		{
			"buffer":0,
			"byteLength":48,
			"byteOffset":1704,
			"target":34962
		},
		{
			"buffer":0,
			"byteLength":48,
			"byteOffset":1752,
			"target":34962
		},
		{
			"buffer":0,
			"byteLength":32,
			"byteOffset":1800,
			"target":34962
		}
	],
	"samplers":[
		{
			"magFilter":9729,
			"minFilter":9987
		},
		{
			"magFilter":9728,
			"minFilter":9984
		}
	],
	"buffers":[
		{
			"byteLength":1832,
			"uri":"OverchargeStation.bin"
		}
	]
}
