{
	"asset":{
		"generator":"Khronos glTF Blender I/O v4.5.48",
		"version":"2.0"
	},
	"extensionsUsed":[
		"KHR_materials_emissive_strength"
	],
	"scene":0,
	"scenes":[
		{
			"name":"Scene",
			"nodes":[
				0,
				1,
				2
			]
		}
	],
	"nodes":[
		{
			"mesh":0,
			"name":"Cube",
			"translation":[
				0,
				1,
				0
			]
		},
		{
			"mesh":1,
			"name":"Cube.004",
			"translation":[
				0,
				1,
				0
			]
		},
		{
			"mesh":2,
			"name":"Cube.001",
			"translation":[
				0,
				1,
				0.04149097204208374
			]
		}
	],
	"materials":[
		{
			"doubleSided":true,
			"name":"Metal",
			"pbrMetallicRoughness":{
				"baseColorFactor":[
					0.14126233756542206,
					0.1195385530591011,
					0.16513225436210632,
					1
				],
				"metallicFactor":0.7501852512359619,
				"roughnessFactor":0.609154462814331
			}
		},
		{
			"doubleSided":true,
			"emissiveFactor":[
				0,
				0.03005208789991798,
				0
			],
			"name":"ScreenBackground",
			"pbrMetallicRoughness":{
				"baseColorFactor":[
					0,
					0.08848551660776138,
					0,
					1
				],
				"metallicFactor":0
			}
		},
		{
			"alphaMode":"BLEND",
			"doubleSided":true,
			"emissiveFactor":[
				1,
				1,
				1
			],
			"emissiveTexture":{
				"index":0
			},
			"extensions":{
				"KHR_materials_emissive_strength":{
					"emissiveStrength":1.5
				}
			},
			"name":"ConsoleScreen.001",
			"pbrMetallicRoughness":{
				"baseColorTexture":{
					"index":1
				},
				"metallicFactor":0,
				"roughnessFactor":0.5
			}
		}
	],
	"meshes":[
		{
			"name":"Cube.009",
			"primitives":[
				{
					"attributes":{
						"POSITION":0,
						"NORMAL":1,
						"TEXCOORD_0":2
					},
					"indices":3,
					"material":0
				}
			]
		},
		{
			"name":"Cube.011",
			"primitives":[
				{
					"attributes":{
						"POSITION":4,
						"NORMAL":5,
						"TEXCOORD_0":6
					},
					"indices":7,
					"material":1
				}
			]
		},
		{
			"name":"Cube.004",
			"primitives":[
				{
					"attributes":{
						"POSITION":8,
						"NORMAL":9,
						"TEXCOORD_0":10
					},
					"indices":7,
					"material":2
				}
			]
		}
	],
	"textures":[
		{
			"sampler":0,
			"source":0
		},
		{
			"sampler":0,
			"source":0
		}
	],
	"images":[
		{
			"mimeType":"image/png",
			"name":"cam_crosshair",
			"uri":"cam_crosshair.png"
		}
	],
	"accessors":[
		{
			"bufferView":0,
			"componentType":5126,
			"count":86,
			"max":[
				0.6949848532676697,
				1.4270858764648438,
				1.432697057723999
			],
			"min":[
				-0.6909635066986084,
				-0.9937578439712524,
				-0.03018486499786377
			],
			"type":"VEC3"
		},
		{
			"bufferView":1,
			"componentType":5126,
			"count":86,
			"type":"VEC3"
		},
		{
			"bufferView":2,
			"componentType":5126,
			"count":86,
			"type":"VEC2"
		},
		{
			"bufferView":3,
			"componentType":5123,
			"count":162,
			"type":"SCALAR"
		},
		{
			"bufferView":4,
			"componentType":5126,
			"count":4,
			"max":[
				0.5844712257385254,
				1.3235547542572021,
				0.8378034234046936
			],
			"min":[
				-0.5835481882095337,
				0.3206232488155365,
				0.8378034234046936
			],
			"type":"VEC3"
		},
		{
			"bufferView":5,
			"componentType":5126,
			"count":4,
			"type":"VEC3"
		},
		{
			"bufferView":6,
			"componentType":5126,
			"count":4,
			"type":"VEC2"
		},
		{
			"bufferView":7,
			"componentType":5123,
			"count":6,
			"type":"SCALAR"
		},
		{
			"bufferView":8,
			"componentType":5126,
			"count":4,
			"max":[
				0.5844712257385254,
				1.3235547542572021,
				0.8378034234046936
			],
			"min":[
				-0.5835481882095337,
				0.3206232488155365,
				0.8378034234046936
			],
			"type":"VEC3"
		},
		{
			"bufferView":9,
			"componentType":5126,
			"count":4,
			"type":"VEC3"
		},
		{
			"bufferView":10,
			"componentType":5126,
			"count":4,
			"type":"VEC2"
		}
	],
	"bufferViews":[
		{
			"buffer":0,
			"byteLength":1032,
			"byteOffset":0,
			"target":34962
		},
		{
			"buffer":0,
			"byteLength":1032,
			"byteOffset":1032,
			"target":34962
		},
		{
			"buffer":0,
			"byteLength":688,
			"byteOffset":2064,
			"target":34962
		},
		{
			"buffer":0,
			"byteLength":324,
			"byteOffset":2752,
			"target":34963
		},
		{
			"buffer":0,
			"byteLength":48,
			"byteOffset":3076,
			"target":34962
		},
		{
			"buffer":0,
			"byteLength":48,
			"byteOffset":3124,
			"target":34962
		},
		{
			"buffer":0,
			"byteLength":32,
			"byteOffset":3172,
			"target":34962
		},
		{
			"buffer":0,
			"byteLength":12,
			"byteOffset":3204,
			"target":34963
		},
		{
			"buffer":0,
			"byteLength":48,
			"byteOffset":3216,
			"target":34962
		},
		{
			"buffer":0,
			"byteLength":48,
			"byteOffset":3264,
			"target":34962
		},
		{
			"buffer":0,
			"byteLength":32,
			"byteOffset":3312,
			"target":34962
		}
	],
	"samplers":[
		{
			"magFilter":9729,
			"minFilter":9987
		}
	],
	"buffers":[
		{
			"byteLength":3344,
			"uri":"WeaponsConsole.bin"
		}
	]
}
